<svg width="83" height="157" viewBox="0 0 83 157" fill="none" xmlns="http://www.w3.org/2000/svg">
<rect x="1.5" y="5.5" width="56" height="88" rx="1.5" stroke="white" stroke-width="3"/>
<path d="M60.3734 59.3621C60.3734 61.3252 59.7374 63.346 58.4652 65.4245C57.193 67.5031 55.5161 69.5239 53.4343 71.487C51.3911 73.4115 49.0781 75.2399 46.4952 76.972C43.9508 78.7041 41.3679 80.2438 38.7465 81.591C36.1636 82.8997 33.6771 83.939 31.2869 84.7088C28.8968 85.5171 26.8729 85.9405 25.2152 85.979C23.6346 86.056 21.9384 85.9213 20.1265 85.5748C18.3146 85.2284 16.5798 84.7858 14.9222 84.2469C13.303 83.7465 11.8381 83.2076 10.5274 82.6302C9.25522 82.0144 8.38783 81.4755 7.92522 81.0136C7.65536 80.7057 7.42406 80.3785 7.2313 80.0321C7.0771 79.6472 7 79.243 7 78.8196C7 78.3577 7.11565 77.8958 7.34696 77.4339C7.61681 76.9335 8.04087 76.4331 8.61913 75.9327C9.15884 75.5093 9.83348 74.9704 10.643 74.3161C11.337 73.7772 12.2236 73.0844 13.303 72.2375C14.3825 71.3522 15.7125 70.2937 17.293 69.062C16.7148 69.6394 16.3485 70.1782 16.1943 70.6786C16.0401 71.179 15.9823 71.6409 16.0209 72.0643C16.0594 72.5262 16.2136 72.9496 16.4835 73.3345C16.869 73.8349 17.5436 74.3931 18.5074 75.0089C19.4712 75.6248 20.6277 76.2022 21.9769 76.741C23.3648 77.2414 24.9068 77.6648 26.603 78.0113C28.3378 78.3577 30.1304 78.5309 31.9809 78.5309C34.2553 78.5309 36.5106 78.3192 38.7465 77.8958C40.9824 77.4339 42.9871 76.6833 44.7604 75.644C46.5723 74.6048 48.0179 73.2383 49.0974 71.5447C50.2153 69.8126 50.7743 67.6763 50.7743 65.1359C50.7743 62.7879 50.2153 60.7286 49.0974 58.958C48.0179 57.1489 46.5916 55.5322 44.8182 54.108C43.0449 52.6839 41.0017 51.3944 38.6887 50.2397C36.4142 49.0464 34.0819 47.8724 31.6917 46.7177C29.3401 45.5629 27.0078 44.3889 24.6948 43.1957C22.4203 42.0025 20.3964 40.6745 18.623 39.2118C16.8497 37.7107 15.4041 36.0363 14.2861 34.1887C13.2067 32.3026 12.667 30.1278 12.667 27.6644C12.667 25.2779 13.2452 22.9492 14.4017 20.6782C15.5968 18.3687 17.1581 16.2132 19.0856 14.2116C21.0132 12.1716 23.2106 10.2855 25.6778 8.55336C28.1836 6.82124 30.7472 5.33932 33.3687 4.10759C35.9901 2.83737 38.5537 1.85584 41.0595 1.16299C43.6039 0.431655 45.8977 0.0467397 47.9408 0.00824818C49.9069 -0.0302433 51.7959 0.0659854 53.6078 0.296934C55.4197 0.489392 56.9424 0.797324 58.1761 1.22073C59.4097 1.64414 60.2578 2.18302 60.7204 2.83737C61.183 3.45324 61.0674 4.16533 60.3734 4.97365C59.7952 5.62801 59.082 6.32085 58.2339 7.05219C57.4629 7.70655 56.5184 8.43789 55.4004 9.24621C54.2824 10.0545 52.9139 10.9206 51.2948 11.8444C51.6032 11.3825 51.7766 10.9783 51.8152 10.6319C51.8537 10.247 51.8345 9.93905 51.7574 9.70811C51.6417 9.43866 51.4875 9.20772 51.2948 9.01526C51.0249 8.78431 50.543 8.53411 49.8491 8.26467C49.1937 7.99523 48.3649 7.72579 47.3626 7.45635C46.3603 7.18691 45.223 6.97521 43.9508 6.82124C42.6787 6.62879 41.3294 6.53256 39.903 6.53256C37.59 6.53256 35.354 6.82124 33.1952 7.39862C31.0749 7.9375 29.1859 8.78431 27.5282 9.93905C25.9091 11.0938 24.5984 12.5565 23.5961 14.3271C22.6323 16.0977 22.1504 18.1762 22.1504 20.5627C22.1504 23.1801 22.6901 25.4704 23.7696 27.4334C24.8875 29.3965 26.3332 31.1479 28.1065 32.6875C29.9184 34.1887 31.9616 35.5551 34.2361 36.7869C36.5491 38.0186 38.8814 39.2118 41.233 40.3666C43.6232 41.4828 45.9555 42.6376 48.23 43.8308C50.543 45.0241 52.5862 46.352 54.3595 47.8147C56.1714 49.2774 57.6171 50.9517 58.6965 52.8378C59.8145 54.6854 60.3734 56.8602 60.3734 59.3621Z" fill="white"/>
<path d="M76.936 113H58.408C58.152 112.616 58.024 112.104 58.024 111.464C58.024 110.76 58.248 110.12 58.696 109.544L65.128 108.776V83.432H30.376V108.584H35.944C36.968 108.584 37.48 109.032 37.48 109.928C37.48 110.376 37.32 111.144 37 112.232L36.808 113H18.28C18.024 112.616 17.896 112.104 17.896 111.464C17.896 110.76 18.12 110.12 18.568 109.544L25 108.776V55.496H19.432C18.408 55.496 17.896 55.048 17.896 54.152C17.896 53.704 18.056 52.936 18.376 51.848L18.568 51.08H37.096C37.352 51.464 37.48 51.976 37.48 52.616C37.48 53.32 37.256 53.96 36.808 54.536L30.376 55.304V79.016H65.128V55.496H59.56C58.536 55.496 58.024 55.048 58.024 54.152C58.024 53.704 58.184 52.936 58.504 51.848L58.696 51.08H77.224C77.48 51.464 77.608 51.976 77.608 52.616C77.608 53.32 77.384 53.96 76.936 54.536L70.504 55.304V108.584H76.072C77.096 108.584 77.608 109.032 77.608 109.928C77.608 110.376 77.448 111.144 77.128 112.232L76.936 113Z" fill="white"/>
</svg>
