<svg width="253" height="58" viewBox="0 0 253 58" fill="none" xmlns="http://www.w3.org/2000/svg">
<rect x="0.25" y="2.65942" width="35.0405" height="54.3167" rx="2.75" stroke="#EEEEEE" stroke-width="0.5"/>
<path d="M36.3678 35.7586C36.3678 36.9411 35.9847 38.1584 35.2183 39.4105C34.452 40.6626 33.4418 41.8799 32.1878 43.0624C30.957 44.2217 29.5637 45.3231 28.0078 46.3665C26.4752 47.4099 24.9193 48.3373 23.3402 49.1488C21.7843 49.9372 20.2864 50.5632 18.8467 51.027C17.4069 51.5139 16.1877 51.7689 15.1892 51.7921C14.2371 51.8385 13.2153 51.7573 12.1238 51.5487C11.0324 51.34 9.98739 51.0733 8.98884 50.7487C8.01351 50.4473 7.13106 50.1227 6.34151 49.7749C5.57517 49.4039 5.05267 49.0793 4.77401 48.8011C4.61145 48.6156 4.47212 48.4185 4.35601 48.2098C4.26312 47.9779 4.21667 47.7345 4.21667 47.4794C4.21667 47.2012 4.28634 46.9229 4.42567 46.6447C4.58823 46.3433 4.84367 46.0419 5.19201 45.7404C5.51712 45.4854 5.92351 45.1608 6.41117 44.7666C6.82917 44.442 7.36328 44.0246 8.01351 43.5145C8.66373 42.9812 9.46489 42.3436 10.417 41.6016C10.0687 41.9494 9.84806 42.274 9.75517 42.5755C9.66228 42.8769 9.62745 43.1551 9.65067 43.4102C9.67389 43.6884 9.76678 43.9435 9.92934 44.1753C10.1616 44.4768 10.5679 44.813 11.1485 45.184C11.7291 45.5549 12.4257 45.9027 13.2385 46.2273C14.0745 46.5288 15.0034 46.7838 16.0252 46.9925C17.0702 47.2012 18.15 47.3055 19.2647 47.3055C20.6348 47.3055 21.9933 47.178 23.3402 46.9229C24.6871 46.6447 25.8946 46.1926 26.9628 45.5665C28.0543 44.9405 28.9251 44.1174 29.5753 43.0972C30.2488 42.0538 30.5855 40.7669 30.5855 39.2366C30.5855 37.8222 30.2488 36.5817 29.5753 35.5152C28.9251 34.4254 28.0659 33.4516 26.9977 32.5937C25.9294 31.7358 24.6987 30.959 23.3053 30.2634C21.9352 29.5446 20.5303 28.8374 19.0905 28.1418C17.6739 27.4462 16.269 26.7391 14.8757 26.0203C13.5056 25.3015 12.2864 24.5016 11.2182 23.6205C10.1499 22.7162 9.27912 21.7076 8.60567 20.5946C7.95545 19.4585 7.63034 18.1484 7.63034 16.6645C7.63034 15.2269 7.97867 13.8242 8.67534 12.4561C9.39523 11.065 10.3357 9.76651 11.4968 8.5608C12.6579 7.33192 13.9816 6.19578 15.4678 5.15238C16.9773 4.10899 18.5216 3.21631 20.1007 2.47434C21.6798 1.70918 23.2241 1.11792 24.7335 0.700565C26.2662 0.260021 27.6479 0.0281551 28.8787 0.00496855C30.063 -0.018218 31.2009 0.0397484 32.2923 0.178868C33.3838 0.2948 34.301 0.480293 35.0442 0.735345C35.7873 0.990397 36.2982 1.31501 36.5768 1.70918C36.8555 2.08016 36.7858 2.50912 36.3678 2.99603C36.0195 3.3902 35.5899 3.80756 35.079 4.24811C34.6145 4.64228 34.0456 5.08282 33.3722 5.56974C32.6987 6.05666 31.8743 6.57835 30.899 7.13483C31.0848 6.85659 31.1893 6.61313 31.2125 6.40446C31.2357 6.17259 31.2241 5.9871 31.1777 5.84798C31.108 5.68567 31.0151 5.54655 30.899 5.43062C30.7364 5.2915 30.4462 5.14079 30.0282 4.97848C29.6334 4.81618 29.1341 4.65387 28.5303 4.49157C27.9265 4.32926 27.2415 4.20173 26.4752 4.10899C25.7088 3.99305 24.896 3.93509 24.0368 3.93509C22.6435 3.93509 21.2966 4.10899 19.9962 4.45679C18.7189 4.7814 17.5811 5.2915 16.5825 5.9871C15.6072 6.68269 14.8176 7.56378 14.2138 8.63036C13.6333 9.69695 13.343 10.949 13.343 12.3866C13.343 13.9633 13.6681 15.3429 14.3183 16.5254C14.9918 17.7079 15.8626 18.7629 16.9308 19.6903C18.0223 20.5946 19.2531 21.4177 20.6232 22.1597C22.0165 22.9017 23.4214 23.6205 24.838 24.3161C26.2778 24.9885 27.6827 25.6841 29.0528 26.4029C30.4462 27.1216 31.6769 27.9216 32.7452 28.8027C33.8366 29.6837 34.7074 30.6924 35.3577 31.8285C36.0311 32.9415 36.3678 34.2515 36.3678 35.7586Z" fill="#EEEEEE"/>
<path d="M45.6539 43.5635C45.6539 44.9311 45.7681 46.0366 45.9964 46.8799C46.2246 47.7233 46.6241 48.5211 47.1949 49.2733L47.64 49.8887L47.1949 50.4357H40.6888L40.2779 49.2733L41.0654 49.0681C41.9329 48.8174 42.515 48.4869 42.8118 48.0766C43.1086 47.6663 43.257 46.9369 43.257 45.8884V30.4346C43.257 29.3861 43.1086 28.6567 42.8118 28.2464C42.515 27.8361 41.9329 27.5056 41.0654 27.2549L40.2779 27.0498L40.6888 25.8873H46.2018L59.2825 45.273V30.4346C59.2825 29.3861 59.1341 28.6567 58.8373 28.2464C58.5405 27.8361 57.9584 27.5056 57.0909 27.2549L56.3034 27.0498L56.7143 25.8873H63.2204L63.6655 26.4344L63.2204 27.0498C62.6497 27.802 62.2502 28.5997 62.0219 29.4431C61.7936 30.2864 61.6795 31.3919 61.6795 32.7595V47.427C61.6795 47.8601 61.7137 48.2134 61.7822 48.4869C61.8507 48.7604 61.9762 49.0225 62.1588 49.2733L62.604 49.8887L62.1588 50.4357H58.7004L45.6539 31.1184V43.5635Z" fill="#EEEEEE"/>
<path d="M66.9972 38.1957C66.9972 35.7796 67.4195 33.6142 68.2642 31.6996C69.1088 29.7622 70.3758 28.235 72.0651 27.1182C73.7772 25.9785 75.866 25.4087 78.3315 25.4087C80.797 25.4087 82.8743 25.9785 84.5636 27.1182C86.2758 28.235 87.5541 29.7622 88.3988 31.6996C89.2663 33.6142 89.7 35.7796 89.7 38.1957C89.7 40.6118 89.2663 42.7772 88.3988 44.6918C87.5541 46.6064 86.2758 48.1222 84.5636 49.2391C82.8743 50.3559 80.797 50.9144 78.3315 50.9144C75.866 50.9144 73.7772 50.3559 72.0651 49.2391C70.3758 48.1222 69.1088 46.6064 68.2642 44.6918C67.4195 42.7772 66.9972 40.6118 66.9972 38.1957ZM85.9676 38.2983C85.9676 36.6572 85.7279 35.0046 85.2485 33.3407C84.7919 31.654 84.0043 30.2408 82.8857 29.1012C81.7672 27.9387 80.3061 27.3575 78.5027 27.3575C76.8819 27.3575 75.4779 27.8589 74.2909 28.8618C73.1266 29.842 72.2363 31.1754 71.6199 32.8621C71.0036 34.5488 70.6954 36.4178 70.6954 38.4692C70.6954 40.4522 70.9808 42.2301 71.5515 43.8029C72.1222 45.3756 72.9668 46.6178 74.0854 47.5296C75.2268 48.4413 76.5965 48.8972 78.1945 48.8972C79.7925 48.8972 81.1736 48.4299 82.3379 47.4954C83.5249 46.5608 84.4267 45.2958 85.043 43.7003C85.6594 42.082 85.9676 40.2813 85.9676 38.2983Z" fill="#EEEEEE"/>
<path d="M114.711 50.4357L109.677 35.5289L104.746 50.4357H100.842L94.1652 30.6055C93.8228 29.557 93.4347 28.7593 93.0009 28.2122C92.5672 27.6652 91.928 27.0726 91.0834 26.4344L91.5285 25.8873H99.2331L99.644 27.0498L98.8564 27.2549C98.3085 27.3917 97.909 27.574 97.6579 27.802C97.4296 28.0299 97.3155 28.349 97.3155 28.7593C97.3155 29.124 97.4411 29.6824 97.6922 30.4346L103.274 47.5979L108.376 31.6996L108.033 30.6055C107.691 29.557 107.303 28.7593 106.869 28.2122C106.435 27.6652 105.796 27.0726 104.952 26.4344L105.397 25.8873H113.101L113.512 27.0498L112.725 27.2549C112.177 27.3917 111.777 27.574 111.526 27.802C111.298 28.0299 111.184 28.349 111.184 28.7593C111.184 29.124 111.309 29.6824 111.56 30.4346L117.142 47.5979L121.936 32.7253C122.37 31.3577 122.586 30.2978 122.586 29.5456C122.541 28.292 122.027 27.5284 121.046 27.2549L120.258 27.0498L120.669 25.8873H127.175L127.62 26.4344L127.107 27.0498C126.262 28.0527 125.634 29.1923 125.223 30.4688L118.614 50.4357H114.711Z" fill="#EEEEEE"/>
<path d="M153.518 49.2733L154.306 49.0681C155.173 48.8174 155.755 48.4869 156.052 48.0766C156.349 47.6663 156.497 46.9369 156.497 45.8884V39.0163H145.3V46.1278C145.3 47.1079 145.437 47.7917 145.711 48.1792C145.985 48.5667 146.544 48.8858 147.389 49.1365L148.108 49.3416L147.731 50.4357H139.342L138.931 49.2733L139.718 49.0681C140.586 48.8174 141.168 48.4869 141.465 48.0766C141.761 47.6663 141.91 46.9369 141.91 45.8884V30.4346C141.91 29.3861 141.761 28.6567 141.465 28.2464C141.168 27.8361 140.586 27.5056 139.718 27.2549L138.931 27.0498L139.342 25.8873H146.841L147.286 26.4344L146.841 27.0498C146.27 27.802 145.87 28.5997 145.642 29.4431C145.414 30.2864 145.3 31.3919 145.3 32.7595V36.9307H156.497V30.4346C156.497 29.3861 156.349 28.6567 156.052 28.2464C155.755 27.8361 155.173 27.5056 154.306 27.2549L153.518 27.0498L153.929 25.8873H161.428L161.873 26.4344L161.428 27.0498C160.857 27.802 160.458 28.5997 160.229 29.4431C160.001 30.2864 159.887 31.3919 159.887 32.7595V46.1278C159.887 47.1079 160.024 47.7917 160.298 48.1792C160.572 48.5667 161.131 48.8858 161.976 49.1365L162.695 49.3416L162.318 50.4357H153.929L153.518 49.2733Z" fill="#EEEEEE"/>
<path d="M165.444 38.1957C165.444 35.7796 165.867 33.6142 166.711 31.6996C167.556 29.7622 168.823 28.235 170.512 27.1182C172.225 25.9785 174.313 25.4087 176.779 25.4087C179.244 25.4087 181.322 25.9785 183.011 27.1182C184.723 28.235 186.001 29.7622 186.846 31.6996C187.714 33.6142 188.147 35.7796 188.147 38.1957C188.147 40.6118 187.714 42.7772 186.846 44.6918C186.001 46.6064 184.723 48.1222 183.011 49.2391C181.322 50.3559 179.244 50.9144 176.779 50.9144C174.313 50.9144 172.225 50.3559 170.512 49.2391C168.823 48.1222 167.556 46.6064 166.711 44.6918C165.867 42.7772 165.444 40.6118 165.444 38.1957ZM184.415 38.2983C184.415 36.6572 184.175 35.0046 183.696 33.3407C183.239 31.654 182.452 30.2408 181.333 29.1012C180.214 27.9387 178.753 27.3575 176.95 27.3575C175.329 27.3575 173.925 27.8589 172.738 28.8618C171.574 29.842 170.684 31.1754 170.067 32.8621C169.451 34.5488 169.143 36.4178 169.143 38.4692C169.143 40.4522 169.428 42.2301 169.999 43.8029C170.569 45.3756 171.414 46.6178 172.533 47.5296C173.674 48.4413 175.044 48.8972 176.642 48.8972C178.24 48.8972 179.621 48.4299 180.785 47.4954C181.972 46.5608 182.874 45.2958 183.49 43.7003C184.107 42.082 184.415 40.2813 184.415 38.2983Z" fill="#EEEEEE"/>
<path d="M196.55 42.9139C196.55 44.7146 197.121 46.1392 198.262 47.1877C199.404 48.2362 200.842 48.7604 202.577 48.7604C204.312 48.7604 205.75 48.2362 206.892 47.1877C208.033 46.1392 208.604 44.7146 208.604 42.9139V30.4346C208.604 29.3861 208.455 28.6567 208.159 28.2464C207.862 27.8361 207.28 27.5056 206.412 27.2549L205.625 27.0498L206.036 25.8873H212.542L212.987 26.4344L212.542 27.0498C211.971 27.802 211.571 28.5997 211.343 29.4431C211.115 30.2864 211.001 31.3919 211.001 32.7595V42.9139C211.001 45.6035 210.179 47.6093 208.535 48.9314C206.892 50.2534 204.757 50.9144 202.132 50.9144C199.461 50.9144 197.292 50.2534 195.626 48.9314C193.982 47.6093 193.16 45.6035 193.16 42.9139V30.4346C193.16 29.3861 193.012 28.6567 192.715 28.2464C192.418 27.8361 191.836 27.5056 190.969 27.2549L190.181 27.0498L190.592 25.8873H198.091L198.536 26.4344L198.091 27.0498C197.521 27.802 197.121 28.5997 196.893 29.4431C196.665 30.2864 196.55 31.3919 196.55 32.7595V42.9139Z" fill="#EEEEEE"/>
<path d="M224.672 48.9997C225.996 48.9997 227.058 48.6578 227.857 47.974C228.679 47.2902 229.09 46.3443 229.09 45.1363C229.09 44.1562 228.839 43.3242 228.336 42.6404C227.834 41.9566 227.206 41.3982 226.453 40.9651C225.722 40.532 224.718 40.0306 223.44 39.4607C221.979 38.7997 220.803 38.1957 219.913 37.6487C219.045 37.1016 218.303 36.3722 217.687 35.4605C217.07 34.5488 216.762 33.4091 216.762 32.0415C216.762 30.8791 217.036 29.7964 217.584 28.7935C218.155 27.7678 218.999 26.9472 220.118 26.3318C221.237 25.7164 222.606 25.4087 224.227 25.4087C225.711 25.4087 227.035 25.6252 228.199 26.0583C229.386 26.4685 230.3 27.0612 230.939 27.8361C231.601 28.5883 231.932 29.4545 231.932 30.4346C231.932 31.597 231.578 32.5544 230.87 33.3065C230.185 34.0587 229.318 34.4348 228.268 34.4348C227.788 34.4348 227.549 34.298 227.549 34.0245C227.549 33.9562 227.64 33.7624 227.823 33.4433C228.028 33.1242 228.199 32.7709 228.336 32.3834C228.496 31.9731 228.576 31.4831 228.576 30.9132C228.576 29.842 228.176 28.9758 227.377 28.3148C226.578 27.6538 225.528 27.3233 224.227 27.3233C222.88 27.3233 221.842 27.7108 221.111 28.4858C220.381 29.2379 220.015 30.1611 220.015 31.2551C220.015 32.0985 220.255 32.8279 220.734 33.4433C221.214 34.0587 221.807 34.5716 222.515 34.9818C223.223 35.3921 224.204 35.8822 225.46 36.452C226.967 37.113 228.188 37.7398 229.124 38.3325C230.083 38.9023 230.893 39.6773 231.555 40.6574C232.217 41.6147 232.548 42.8113 232.548 44.2473C232.548 46.2759 231.863 47.8943 230.494 49.1023C229.147 50.3103 227.206 50.9144 224.672 50.9144C223.029 50.9144 221.568 50.6864 220.289 50.2306C219.011 49.7519 218.006 49.1023 217.276 48.2817C216.568 47.4384 216.214 46.4811 216.214 45.4098C216.214 44.2473 216.58 43.29 217.31 42.5378C218.064 41.7856 218.999 41.4096 220.118 41.4096C220.369 41.4096 220.552 41.4551 220.666 41.5463C220.78 41.6147 220.837 41.7059 220.837 41.8198C220.837 41.8882 220.734 42.082 220.529 42.4011C220.324 42.6974 220.141 43.0507 219.981 43.461C219.821 43.8712 219.741 44.3613 219.741 44.9311C219.741 46.1392 220.198 47.1193 221.111 47.8715C222.024 48.6236 223.211 48.9997 224.672 48.9997Z" fill="#EEEEEE"/>
<path d="M242.008 45.8884C242.008 46.6178 242.065 47.1649 242.179 47.5296C242.294 47.8943 242.499 48.145 242.796 48.2817C243.115 48.4185 243.583 48.4869 244.2 48.4869H247.898C248.72 48.4869 249.359 48.4071 249.815 48.2476C250.272 48.0652 250.626 47.7689 250.877 47.3586C251.151 46.9255 251.402 46.2873 251.63 45.444L251.836 44.6576L253 45.0679V50.9144L252.315 51.2905L252.041 50.9144C251.79 50.5953 251.311 50.4357 250.603 50.4357H236.187L235.81 49.3416L236.529 49.1365C237.374 48.8858 237.933 48.5667 238.207 48.1792C238.481 47.7917 238.618 47.1079 238.618 46.1278V32.7595C238.618 31.3919 238.504 30.2864 238.276 29.4431C238.047 28.5997 237.648 27.802 237.077 27.0498L236.632 26.4344L237.077 25.8873H247.555C249.519 25.8873 250.82 25.648 251.459 25.1693L252.075 24.7249L252.623 25.1693V31.2551L251.459 31.6654L251.254 30.8791C251.025 30.0357 250.774 29.4089 250.5 28.9986C250.249 28.5655 249.895 28.2692 249.439 28.1097C248.982 27.9273 248.343 27.8361 247.521 27.8361H244.2C243.583 27.8361 243.115 27.9045 242.796 28.0413C242.499 28.178 242.294 28.4288 242.179 28.7935C242.065 29.1582 242.008 29.7052 242.008 30.4346V36.9991H246.357C246.905 36.9991 247.384 36.8851 247.795 36.6572C248.229 36.4064 248.651 35.9962 249.062 35.4263L249.336 35.0502L250.021 35.4263V41.2728L248.857 41.6831L248.651 40.8967C248.446 40.1217 248.08 39.6089 247.555 39.3582C247.053 39.0846 246.174 38.9479 244.919 38.9479H242.008V45.8884Z" fill="#EEEEEE"/>
</svg>
