<svg width="420" height="95" viewBox="0 0 420 95" fill="none" xmlns="http://www.w3.org/2000/svg">
<rect x="0.25" y="4.25" width="58.5" height="90.5" rx="2.75" stroke="black" stroke-width="0.5"/>
<path d="M60.3734 59.3621C60.3734 61.3252 59.7374 63.346 58.4652 65.4245C57.193 67.5031 55.5161 69.5239 53.4343 71.487C51.3911 73.4115 49.0781 75.2399 46.4952 76.972C43.9508 78.7041 41.3679 80.2438 38.7465 81.591C36.1636 82.8997 33.6771 83.939 31.2869 84.7088C28.8968 85.5171 26.8729 85.9405 25.2152 85.979C23.6346 86.056 21.9384 85.9213 20.1265 85.5748C18.3146 85.2284 16.5798 84.7858 14.9222 84.2469C13.303 83.7465 11.8381 83.2076 10.5274 82.6302C9.25522 82.0144 8.38783 81.4755 7.92522 81.0136C7.65536 80.7057 7.42406 80.3785 7.2313 80.0321C7.0771 79.6472 7 79.243 7 78.8196C7 78.3577 7.11565 77.8958 7.34696 77.4339C7.61681 76.9335 8.04087 76.4331 8.61913 75.9327C9.15884 75.5093 9.83348 74.9704 10.643 74.3161C11.337 73.7772 12.2236 73.0844 13.303 72.2375C14.3825 71.3522 15.7125 70.2937 17.293 69.062C16.7148 69.6394 16.3485 70.1782 16.1943 70.6786C16.0401 71.179 15.9823 71.6409 16.0209 72.0643C16.0594 72.5262 16.2136 72.9496 16.4835 73.3345C16.869 73.8349 17.5436 74.3931 18.5074 75.0089C19.4712 75.6248 20.6277 76.2022 21.9769 76.741C23.3648 77.2414 24.9068 77.6648 26.603 78.0113C28.3378 78.3577 30.1304 78.5309 31.9809 78.5309C34.2553 78.5309 36.5106 78.3192 38.7465 77.8958C40.9824 77.4339 42.9871 76.6833 44.7604 75.644C46.5723 74.6048 48.0179 73.2383 49.0974 71.5447C50.2153 69.8126 50.7743 67.6763 50.7743 65.1359C50.7743 62.7879 50.2153 60.7286 49.0974 58.958C48.0179 57.1489 46.5916 55.5322 44.8182 54.108C43.0449 52.6839 41.0017 51.3944 38.6887 50.2397C36.4142 49.0464 34.0819 47.8724 31.6917 46.7177C29.3401 45.5629 27.0078 44.3889 24.6948 43.1957C22.4203 42.0025 20.3964 40.6745 18.623 39.2118C16.8497 37.7107 15.4041 36.0363 14.2861 34.1887C13.2067 32.3026 12.667 30.1278 12.667 27.6644C12.667 25.2779 13.2452 22.9492 14.4017 20.6782C15.5968 18.3687 17.1581 16.2132 19.0856 14.2116C21.0132 12.1716 23.2106 10.2855 25.6778 8.55336C28.1836 6.82124 30.7472 5.33932 33.3687 4.10759C35.9901 2.83737 38.5537 1.85584 41.0595 1.16299C43.6039 0.431655 45.8977 0.0467397 47.9408 0.00824818C49.9069 -0.0302433 51.7959 0.0659854 53.6078 0.296934C55.4197 0.489392 56.9424 0.797324 58.1761 1.22073C59.4097 1.64414 60.2578 2.18302 60.7204 2.83737C61.183 3.45324 61.0674 4.16533 60.3734 4.97365C59.7952 5.62801 59.082 6.32085 58.2339 7.05219C57.4629 7.70655 56.5184 8.43789 55.4004 9.24621C54.2824 10.0545 52.9139 10.9206 51.2948 11.8444C51.6032 11.3825 51.7766 10.9783 51.8152 10.6319C51.8537 10.247 51.8345 9.93905 51.7574 9.70811C51.6417 9.43866 51.4875 9.20772 51.2948 9.01526C51.0249 8.78431 50.543 8.53411 49.8491 8.26467C49.1937 7.99523 48.3649 7.72579 47.3626 7.45635C46.3603 7.18691 45.223 6.97521 43.9508 6.82124C42.6787 6.62879 41.3294 6.53256 39.903 6.53256C37.59 6.53256 35.354 6.82124 33.1952 7.39862C31.0749 7.9375 29.1859 8.78431 27.5282 9.93905C25.9091 11.0938 24.5984 12.5565 23.5961 14.3271C22.6323 16.0977 22.1504 18.1762 22.1504 20.5627C22.1504 23.1801 22.6901 25.4704 23.7696 27.4334C24.8875 29.3965 26.3332 31.1479 28.1065 32.6875C29.9184 34.1887 31.9616 35.5551 34.2361 36.7869C36.5491 38.0186 38.8814 39.2118 41.233 40.3666C43.6232 41.4828 45.9555 42.6376 48.23 43.8308C50.543 45.0241 52.5862 46.352 54.3595 47.8147C56.1714 49.2774 57.6171 50.9517 58.6965 52.8378C59.8145 54.6854 60.3734 56.8602 60.3734 59.3621Z" fill="#404040"/>
<path d="M75.7891 72.3189C75.7891 74.5892 75.9786 76.4244 76.3576 77.8244C76.7366 79.2244 77.3998 80.5488 78.3472 81.7975L79.0862 82.8191L78.3472 83.7273H67.5466L66.8644 81.7975L68.1719 81.4569C69.6119 81.0407 70.5783 80.492 71.071 79.811C71.5636 79.1299 71.81 77.919 71.81 76.1784V50.5238C71.81 48.7832 71.5636 47.5724 71.071 46.8913C70.5783 46.2102 69.6119 45.6615 68.1719 45.2453L66.8644 44.9048L67.5466 42.975H76.6987L98.4136 75.1568V50.5238C98.4136 48.7832 98.1672 47.5724 97.6746 46.8913C97.1819 46.2102 96.2155 45.6615 94.7755 45.2453L93.468 44.9048L94.1502 42.975H104.951L105.69 43.8831L104.951 44.9048C104.003 46.1534 103.34 47.4778 102.961 48.8778C102.582 50.2779 102.393 52.113 102.393 54.3834V78.7326C102.393 79.4515 102.45 80.038 102.563 80.4921C102.677 80.9461 102.885 81.3813 103.189 81.7975L103.928 82.8191L103.189 83.7273H97.4472L75.7891 51.659V72.3189Z" fill="#404040"/>
<path d="M111.221 63.4079C111.221 59.397 111.922 55.8023 113.324 52.6239C114.726 49.4076 116.829 46.8724 119.634 45.0183C122.476 43.1263 125.944 42.1804 130.036 42.1804C134.129 42.1804 137.578 43.1263 140.382 45.0183C143.225 46.8724 145.347 49.4076 146.749 52.6239C148.189 55.8023 148.909 59.397 148.909 63.4079C148.909 67.4188 148.189 71.0135 146.749 74.1919C145.347 77.3704 143.225 79.8866 140.382 81.7407C137.578 83.5948 134.129 84.5219 130.036 84.5219C125.944 84.5219 122.476 83.5948 119.634 81.7407C116.829 79.8866 114.726 77.3704 113.324 74.1919C111.922 71.0135 111.221 67.4188 111.221 63.4079ZM142.713 63.5782C142.713 60.8538 142.315 58.1105 141.519 55.3482C140.761 52.5482 139.454 50.2022 137.597 48.3102C135.74 46.3805 133.315 45.4156 130.321 45.4156C127.63 45.4156 125.299 46.248 123.329 47.9129C121.396 49.54 119.918 51.7536 118.895 54.5536C117.872 57.3537 117.36 60.4565 117.36 63.8619C117.36 67.1539 117.834 70.1053 118.781 72.7162C119.728 75.3271 121.131 77.3893 122.988 78.9028C124.882 80.4164 127.156 81.1731 129.809 81.1731C132.462 81.1731 134.755 80.3975 136.687 78.8461C138.658 77.2947 140.155 75.1946 141.178 72.5459C142.201 69.8594 142.713 66.8701 142.713 63.5782Z" fill="#404040"/>
<path d="M190.429 83.7273L182.073 58.9808L173.887 83.7273H167.406L156.322 50.8076C155.753 49.067 155.109 47.7427 154.389 46.8345C153.669 45.9264 152.608 44.9426 151.206 43.8831L151.945 42.975H164.735L165.417 44.9048L164.109 45.2453C163.2 45.4723 162.537 45.7751 162.12 46.1534C161.741 46.5318 161.551 47.0616 161.551 47.7427C161.551 48.3481 161.76 49.2751 162.177 50.5238L171.442 79.0163L179.912 52.6239L179.344 50.8076C178.776 49.067 178.131 47.7427 177.411 46.8345C176.691 45.9264 175.63 44.9426 174.228 43.8831L174.967 42.975H187.757L188.439 44.9048L187.132 45.2453C186.222 45.4723 185.559 45.7751 185.142 46.1534C184.763 46.5318 184.574 47.0616 184.574 47.7427C184.574 48.3481 184.782 49.2751 185.199 50.5238L194.465 79.0163L202.423 54.3266C203.143 52.0563 203.503 50.2968 203.503 49.0481C203.427 46.967 202.575 45.6994 200.945 45.2453L199.638 44.9048L200.32 42.975H211.12L211.859 43.8831L211.007 44.9048C209.605 46.5697 208.562 48.4616 207.88 50.5806L196.909 83.7273H190.429Z" fill="#404040"/>
<path d="M254.852 81.7975L256.159 81.4569C257.599 81.0407 258.566 80.492 259.058 79.811C259.551 79.1299 259.797 77.919 259.797 76.1784V64.7701H241.209V76.5757C241.209 78.2028 241.436 79.338 241.891 79.9812C242.346 80.6245 243.274 81.1542 244.677 81.5704L245.87 81.911L245.245 83.7273H231.318L230.636 81.7975L231.943 81.4569C233.383 81.0407 234.35 80.492 234.842 79.811C235.335 79.1299 235.581 77.919 235.581 76.1784V50.5238C235.581 48.7832 235.335 47.5724 234.842 46.8913C234.35 46.2102 233.383 45.6615 231.943 45.2453L230.636 44.9048L231.318 42.975H243.767L244.506 43.8831L243.767 44.9048C242.82 46.1534 242.156 47.4778 241.777 48.8778C241.398 50.2779 241.209 52.113 241.209 54.3834V61.3078H259.797V50.5238C259.797 48.7832 259.551 47.5724 259.058 46.8913C258.566 46.2102 257.599 45.6615 256.159 45.2453L254.852 44.9048L255.534 42.975H267.983L268.722 43.8831L267.983 44.9048C267.036 46.1534 266.373 47.4778 265.994 48.8778C265.615 50.2779 265.425 52.113 265.425 54.3834V76.5757C265.425 78.2028 265.653 79.338 266.107 79.9812C266.562 80.6245 267.49 81.1542 268.893 81.5704L270.086 81.911L269.461 83.7273H255.534L254.852 81.7975Z" fill="#404040"/>
<path d="M274.651 63.4079C274.651 59.397 275.352 55.8023 276.754 52.6239C278.156 49.4076 280.26 46.8724 283.064 45.0183C285.906 43.1263 289.374 42.1804 293.467 42.1804C297.56 42.1804 301.008 43.1263 303.813 45.0183C306.655 46.8724 308.777 49.4076 310.179 52.6239C311.619 55.8023 312.339 59.397 312.339 63.4079C312.339 67.4188 311.619 71.0135 310.179 74.1919C308.777 77.3704 306.655 79.8866 303.813 81.7407C301.008 83.5948 297.56 84.5219 293.467 84.5219C289.374 84.5219 285.906 83.5948 283.064 81.7407C280.26 79.8866 278.156 77.3704 276.754 74.1919C275.352 71.0135 274.651 67.4188 274.651 63.4079ZM306.143 63.5782C306.143 60.8538 305.745 58.1105 304.949 55.3482C304.192 52.5482 302.884 50.2022 301.027 48.3102C299.17 46.3805 296.745 45.4156 293.751 45.4156C291.06 45.4156 288.73 46.248 286.759 47.9129C284.826 49.54 283.348 51.7536 282.325 54.5536C281.302 57.3537 280.79 60.4565 280.79 63.8619C280.79 67.1539 281.264 70.1053 282.211 72.7162C283.159 75.3271 284.561 77.3893 286.418 78.9028C288.313 80.4164 290.587 81.1731 293.239 81.1731C295.892 81.1731 298.185 80.3975 300.118 78.8461C302.088 77.2947 303.585 75.1946 304.608 72.5459C305.632 69.8594 306.143 66.8701 306.143 63.5782Z" fill="#404040"/>
<path d="M326.289 71.2405C326.289 74.2298 327.237 76.5947 329.131 78.3352C331.026 80.0758 333.414 80.9461 336.294 80.9461C339.174 80.9461 341.562 80.0758 343.456 78.3352C345.351 76.5947 346.299 74.2298 346.299 71.2405V50.5238C346.299 48.7832 346.052 47.5724 345.56 46.8913C345.067 46.2102 344.101 45.6615 342.661 45.2453L341.353 44.9048L342.035 42.975H352.836L353.575 43.8831L352.836 44.9048C351.888 46.1534 351.225 47.4778 350.846 48.8778C350.467 50.2779 350.278 52.113 350.278 54.3834V71.2405C350.278 75.7055 348.914 79.0353 346.185 81.2299C343.456 83.4245 339.913 84.5219 335.555 84.5219C331.121 84.5219 327.521 83.4245 324.754 81.2299C322.026 79.0353 320.661 75.7055 320.661 71.2405V50.5238C320.661 48.7832 320.415 47.5724 319.922 46.8913C319.43 46.2102 318.463 45.6615 317.023 45.2453L315.716 44.9048L316.398 42.975H328.847L329.586 43.8831L328.847 44.9048C327.9 46.1534 327.237 47.4778 326.858 48.8778C326.479 50.2779 326.289 52.113 326.289 54.3834V71.2405Z" fill="#404040"/>
<path d="M372.974 81.3434C375.172 81.3434 376.934 80.7758 378.26 79.6407C379.625 78.5055 380.307 76.9352 380.307 74.9298C380.307 73.3027 379.89 71.9216 379.056 70.7864C378.223 69.6513 377.18 68.7242 375.93 68.0053C374.717 67.2863 373.05 66.4539 370.927 65.5079C368.502 64.4106 366.55 63.4079 365.072 62.4998C363.632 61.5916 362.401 60.3808 361.377 58.8672C360.354 57.3537 359.843 55.4618 359.843 53.1914C359.843 51.2617 360.297 49.4643 361.207 47.7994C362.154 46.0967 363.556 44.7345 365.413 43.7128C367.27 42.6912 369.544 42.1804 372.235 42.1804C374.698 42.1804 376.896 42.5398 378.829 43.2588C380.799 43.9399 382.315 44.9237 383.376 46.2102C384.476 47.4589 385.025 48.8967 385.025 50.5238C385.025 52.4536 384.438 54.0428 383.263 55.2915C382.126 56.5402 380.686 57.1645 378.943 57.1645C378.147 57.1645 377.749 56.9375 377.749 56.4834C377.749 56.3699 377.9 56.0483 378.204 55.5185C378.545 54.9888 378.829 54.4023 379.056 53.759C379.322 53.0779 379.454 52.2644 379.454 51.3184C379.454 49.54 378.791 48.1021 377.465 47.0048C376.138 45.9075 374.395 45.3588 372.235 45.3588C369.999 45.3588 368.275 46.0021 367.062 47.2886C365.849 48.5373 365.243 50.0697 365.243 51.886C365.243 53.286 365.641 54.4969 366.437 55.5185C367.232 56.5402 368.218 57.3915 369.393 58.0726C370.567 58.7537 372.197 59.5673 374.281 60.5132C376.782 61.6105 378.81 62.6511 380.364 63.6349C381.955 64.5809 383.301 65.8674 384.4 67.4945C385.499 69.0837 386.048 71.0702 386.048 73.4541C386.048 76.8217 384.911 79.5082 382.637 81.5137C380.402 83.5191 377.18 84.5219 372.974 84.5219C370.245 84.5219 367.82 84.1435 365.698 83.3867C363.575 82.5921 361.908 81.5137 360.695 80.1515C359.52 78.7515 358.933 77.1622 358.933 75.3838C358.933 73.4541 359.539 71.8648 360.752 70.6161C362.003 69.3675 363.556 68.7431 365.413 68.7431C365.83 68.7431 366.133 68.8188 366.323 68.9702C366.512 69.0837 366.607 69.235 366.607 69.4242C366.607 69.5377 366.437 69.8594 366.096 70.3891C365.754 70.881 365.451 71.4675 365.186 72.1486C364.921 72.8297 364.788 73.6433 364.788 74.5892C364.788 76.5947 365.546 78.2217 367.062 79.4704C368.578 80.7191 370.548 81.3434 372.974 81.3434Z" fill="#404040"/>
<path d="M401.753 76.1784C401.753 77.3893 401.847 78.2974 402.037 78.9028C402.226 79.5082 402.567 79.9245 403.06 80.1515C403.591 80.3785 404.368 80.4921 405.391 80.4921H411.53C412.894 80.4921 413.955 80.3596 414.713 80.0947C415.471 79.792 416.059 79.3001 416.476 78.619C416.93 77.9001 417.347 76.8406 417.726 75.4406L418.067 74.1351L420 74.8162V84.5219L418.863 85.1462L418.408 84.5219C417.991 83.9921 417.196 83.7273 416.021 83.7273H392.089L391.464 81.911L392.657 81.5704C394.06 81.1542 394.988 80.6245 395.443 79.9812C395.898 79.338 396.125 78.2028 396.125 76.5757V54.3834C396.125 52.113 395.935 50.2779 395.556 48.8778C395.178 47.4778 394.514 46.1534 393.567 44.9048L392.828 43.8831L393.567 42.975H410.962C414.221 42.975 416.381 42.5777 417.442 41.7831L418.465 41.0452L419.375 41.7831V51.886L417.442 52.5671L417.101 51.2617C416.722 49.8616 416.305 48.8211 415.85 48.14C415.433 47.421 414.846 46.9291 414.088 46.6643C413.33 46.3616 412.269 46.2102 410.905 46.2102H405.391C404.368 46.2102 403.591 46.3237 403.06 46.5507C402.567 46.7778 402.226 47.194 402.037 47.7994C401.847 48.4048 401.753 49.313 401.753 50.5238V61.4214H408.972C409.882 61.4214 410.677 61.2322 411.359 60.8538C412.08 60.4375 412.781 59.7565 413.463 58.8105L413.918 58.1861L415.054 58.8105V68.5161L413.122 69.1972L412.781 67.8918C412.44 66.6053 411.833 65.7539 410.962 65.3377C410.128 64.8836 408.669 64.6566 406.584 64.6566H401.753V76.1784Z" fill="#404040"/>
<path fill-rule="evenodd" clip-rule="evenodd" d="M265.443 16.2489C264.811 16.2489 264.214 16.4184 263.644 16.6739C261.892 14.0357 259.023 12.3106 255.778 12.3106C255.254 12.3106 254.749 12.3638 254.25 12.4523C252.53 9.57382 249.533 7.66412 246.116 7.66412C241.292 7.66412 237.306 11.4608 236.577 16.4209C236.532 16.4209 236.491 16.4083 236.448 16.4083C233.218 16.4083 230.6 19.221 230.6 22.6914H270.967C270.618 19.0642 268.288 16.2489 265.443 16.2489Z" fill="#1D1F24"/>
<path d="M235.52 30.2163C236.879 30.2163 237.981 29.1145 237.981 27.7552C237.981 26.396 236.879 25.2941 235.52 25.2941C234.161 25.2941 233.059 26.396 233.059 27.7552C233.059 29.1145 234.161 30.2163 235.52 30.2163Z" fill="#1D1F24"/>
<path d="M245.61 35.2195C246.954 35.2195 248.043 34.1301 248.043 32.7862C248.043 31.4424 246.954 30.3529 245.61 30.3529C244.266 30.3529 243.176 31.4424 243.176 32.7862C243.176 34.1301 244.266 35.2195 245.61 35.2195Z" fill="#1D1F24"/>
<path d="M255.755 30.2163C257.114 30.2163 258.216 29.1145 258.216 27.7552C258.216 26.396 257.114 25.2941 255.755 25.2941C254.396 25.2941 253.294 26.396 253.294 27.7552C253.294 29.1145 254.396 30.2163 255.755 30.2163Z" fill="#1D1F24"/>
<path d="M265.845 35.2195C267.189 35.2195 268.278 34.1301 268.278 32.7862C268.278 31.4424 267.189 30.3529 265.845 30.3529C264.501 30.3529 263.412 31.4424 263.412 32.7862C263.412 34.1301 264.501 35.2195 265.845 35.2195Z" fill="#1D1F24"/>
</svg>
